<svg xmlns="http://www.w3.org/2000/svg" version="1.1" xmlns:xlink="http://www.w3.org/1999/xlink" width="517.0189700171546" height="200" viewBox="0.784000039100647 11.994285583496094 123.19886016845703 41.52571487426758"><path d="M18.40 12.64L18.40 12.64Q17.44 13.20 15.62 13.88Q13.80 14.56 11.70 15.24Q9.60 15.92 7.48 16.62Q5.36 17.32 3.80 17.96L3.80 17.96Q3.88 18.88 3.92 19.54Q3.96 20.20 4.02 20.98Q4.08 21.76 4.22 22.90Q4.36 24.04 4.64 25.96L4.64 25.96Q6.20 25.28 7.16 24.90Q8.12 24.52 9.16 24.20Q10.20 23.88 11.62 23.48Q13.04 23.08 15.48 22.36L15.48 22.36Q15.68 22.40 15.96 22.62Q16.24 22.84 16.42 23.12Q16.60 23.40 16.60 23.68Q16.60 23.96 16.32 24.12L16.32 24.12Q14.64 24.32 13.02 24.74Q11.40 25.16 9.96 25.70Q8.52 26.24 7.28 26.80Q6.04 27.36 5.08 27.80L5.08 27.80Q5.16 29.68 5.50 31.44Q5.84 33.20 6.42 34.62Q7 36.04 7.78 36.96Q8.56 37.88 9.52 38.04L9.52 38.04Q9.96 38.12 10.76 38.18Q11.56 38.24 12.64 37.92Q13.72 37.60 15.08 36.74Q16.44 35.88 18.08 34.08L18.08 34.08Q19.16 33.12 19.64 33Q20.12 32.88 19.76 33.36L19.76 33.36Q18.68 34.52 17.78 35.54Q16.88 36.56 15.92 37.38Q14.96 38.20 13.84 38.80Q12.72 39.40 11.24 39.64L11.24 39.64Q9.20 40.08 7.84 39.42Q6.48 38.76 5.62 37.26Q4.76 35.76 4.24 33.52Q3.72 31.28 3.32 28.56L3.32 28.56Q2.64 28.64 2.20 28.82Q1.76 29 1.04 29.48L1.04 29.48Q0.72 29.44 0.80 29.14Q0.88 28.84 1.22 28.42Q1.56 28 2.06 27.54Q2.56 27.08 3.04 26.76L3.04 26.76Q2.80 25.12 2.58 23.34Q2.36 21.56 2.16 19.94Q1.96 18.32 1.86 17.02Q1.76 15.72 1.76 15.04L1.76 15.04Q2 14.92 2.12 14.86Q2.24 14.80 2.38 14.76Q2.52 14.72 2.72 14.70Q2.92 14.68 3.36 14.64L3.36 14.64Q3.44 14.84 3.46 15.20Q3.48 15.56 3.48 15.84L3.48 15.84Q5.52 15.32 7.16 14.84Q8.80 14.36 10.36 13.90Q11.92 13.44 13.52 12.98Q15.12 12.52 17.04 12.04L17.04 12.04Q17.36 11.96 17.66 12.02Q17.96 12.08 18.16 12.22Q18.36 12.36 18.44 12.48Q18.52 12.60 18.40 12.64ZM19.64 27.36L19.64 27.36Q19.60 27 20.02 27.18Q20.44 27.36 20.88 27.56L20.88 27.56Q21.04 28.48 21.12 29.02Q21.20 29.56 21.24 30.04Q21.28 30.52 21.32 31.08Q21.36 31.64 21.44 32.56L21.44 32.56Q21.80 31.64 22.32 30.86Q22.84 30.08 23.66 29.52Q24.48 28.96 25.62 28.70Q26.76 28.44 28.36 28.52L28.36 28.52Q28.36 28.84 28.14 29.06Q27.92 29.28 27.12 29.40L27.12 29.40Q25.96 29.60 25.10 30.18Q24.24 30.76 23.62 31.52Q23.00 32.28 22.62 33.14Q22.24 34 22.00 34.72L22.00 34.72Q21.96 35.08 21.90 35.74Q21.84 36.40 21.82 37.14Q21.80 37.88 21.78 38.58Q21.76 39.28 21.84 39.68L21.84 39.68Q21.88 39.88 21.66 39.98Q21.44 40.08 21.16 40.12Q20.88 40.16 20.64 40.08Q20.40 40 20.40 39.80L20.40 39.80Q20.48 35.68 20.18 32.70Q19.88 29.72 19.64 27.36ZM30.44 22.40L30.44 22.40Q30.84 22.32 30.92 22.88Q31 23.44 30.76 23.72L30.76 23.72Q30.32 24.08 30.20 24.34Q30.08 24.60 29.64 24.68L29.64 24.68Q29.40 24.64 29.22 24.66Q29.04 24.68 28.92 24L28.92 24Q29.08 23.56 29.42 23.12Q29.76 22.68 30.44 22.40ZM30.56 27.60L30.56 27.60Q30.76 29.52 30.84 31.82Q30.92 34.12 31.12 36.64L31.12 36.64Q31.28 37.92 31.44 38.64Q31.60 39.36 31.68 40L31.68 40Q31.04 40.12 30.68 39.98Q30.32 39.84 30 39.64L30 39.64Q29.92 39 29.82 37.52Q29.72 36.04 29.62 34.30Q29.52 32.56 29.42 30.92Q29.32 29.28 29.24 28.32L29.24 28.32Q29.40 28.24 29.50 28.08Q29.60 27.92 29.72 27.80Q29.84 27.68 30.04 27.60Q30.24 27.52 30.56 27.60ZM39.88 28.28L39.88 28.28Q39.92 28.52 39.50 28.76Q39.08 29 38.44 29.46Q37.80 29.92 37.04 30.68Q36.28 31.44 35.68 32.68L35.68 32.68Q35.04 34.04 34.76 35.04Q34.48 36.04 34.88 37.40L34.88 37.40Q35 37.68 35.22 37.90Q35.44 38.12 35.88 38.16L35.88 38.16Q36.76 38 37.44 37.72Q38.12 37.44 38.72 37.04Q39.32 36.64 39.88 36.18Q40.44 35.72 41.04 35.24L41.04 35.24Q41.92 34.40 42.50 33.78Q43.08 33.16 43.44 32.74Q43.80 32.32 44.06 32.12Q44.32 31.92 44.60 32L44.60 32Q44.44 32.36 43.70 33.52Q42.96 34.68 41.78 35.98Q40.60 37.28 39.04 38.42Q37.48 39.56 35.68 39.84L35.68 39.84Q34.96 39.80 34.50 39.68Q34.04 39.56 33.64 38.72L33.64 38.72Q33.16 37.72 33.28 36.30Q33.40 34.88 33.88 33.48Q34.36 32.08 35.08 30.88Q35.80 29.68 36.48 29.12L36.48 29.12Q37.44 28.44 38.26 28.28Q39.08 28.12 39.88 28.28ZM45.48 32.16L45.48 32.16Q46.40 32.36 47.14 32.48Q47.88 32.60 48.62 32.70Q49.36 32.80 50.26 32.88Q51.16 32.96 52.40 33.08L52.40 33.08Q52.76 33.48 52.88 33.74Q53.00 34 53.20 34.56L53.20 34.56Q51.92 34.32 50.88 34.20Q49.84 34.08 48.82 34Q47.80 33.92 46.72 33.86Q45.64 33.80 44.32 33.68L44.32 33.68Q44.28 35.72 44.40 37.30Q44.52 38.88 44.40 40.16L44.40 40.16Q44.16 40.20 44.02 40.08Q43.88 39.96 43.76 39.80Q43.64 39.64 43.50 39.46Q43.36 39.28 43.12 39.20L43.12 39.20Q43.24 33.68 43.08 29.04Q42.92 24.40 43.00 20.16L43.00 20.16Q43.00 19.36 43.02 18.34Q43.04 17.32 43.04 16.34Q43.04 15.36 43.00 14.58Q42.96 13.80 42.84 13.52L42.84 13.52Q43.12 13.20 43.38 13.12Q43.64 13.04 44.32 13L44.32 13Q44.40 17.88 44.32 22.64Q44.24 27.40 44.32 31.68L44.32 31.68Q45.00 31.16 45.76 30.40Q46.52 29.64 47.18 28.92Q47.84 28.20 48.32 27.66Q48.80 27.12 48.92 27.08L48.92 27.08Q49.28 27.40 49.66 27.62Q50.04 27.84 50.04 27.80L50.04 27.80Q49.04 28.92 47.96 30.18Q46.88 31.44 45.48 32.16ZM66.44 12.36L66.44 12.36Q66.68 12.60 66.78 12.88Q66.88 13.16 66.90 13.48Q66.92 13.80 66.92 14.22Q66.92 14.64 66.96 15.20L66.96 15.20Q69.04 16.32 71.44 17.48Q73.84 18.64 75.94 19.98Q78.04 21.32 79.60 22.92Q81.16 24.52 81.64 26.48L81.64 26.48Q82.04 28.92 81.26 31.12Q80.48 33.32 78.80 35.10Q77.12 36.88 74.72 38.10Q72.32 39.32 69.52 39.84L69.52 39.84Q68.52 40.04 67.58 39.96Q66.64 39.88 65.86 39.54Q65.08 39.20 64.52 38.60Q63.96 38 63.72 37.20L63.72 37.20Q63.68 36.72 63.86 36.38Q64.04 36.04 64.24 35.90Q64.44 35.76 64.56 35.80Q64.68 35.84 64.52 36.16L64.52 36.16Q64.52 37 64.84 37.50Q65.16 38 65.64 38.28Q66.12 38.56 66.64 38.70Q67.16 38.84 67.52 38.92L67.52 38.92Q67.32 37.68 67.16 35.82Q67 33.96 66.82 31.82Q66.64 29.68 66.48 27.42Q66.32 25.16 66.16 23.06Q66 20.96 65.82 19.22Q65.64 17.48 65.48 16.40L65.48 16.40Q64.40 15.92 63.76 15.58Q63.12 15.24 62.66 14.98Q62.20 14.72 61.76 14.52Q61.32 14.32 60.64 14.12L60.64 14.12Q60.32 13.72 60.46 13.48Q60.60 13.24 60.68 12.80L60.68 12.80Q61.68 13.04 62.28 13.26Q62.88 13.48 63.30 13.70Q63.72 13.92 64.14 14.10Q64.56 14.28 65.28 14.44L65.28 14.44Q65.28 14.08 65.26 13.90Q65.24 13.72 65.22 13.60Q65.20 13.48 65.18 13.38Q65.16 13.28 65.16 13.08L65.16 13.08Q65.36 12.16 66.44 12.36ZM67.84 26.40L67.84 26.40Q67.92 27.08 68.02 28.14Q68.12 29.20 68.22 30.42Q68.32 31.64 68.44 32.92Q68.56 34.20 68.64 35.32Q68.72 36.44 68.80 37.32Q68.88 38.20 68.92 38.60L68.92 38.60Q69.84 38.72 71.42 38.28Q73 37.84 74.70 36.78Q76.40 35.72 77.90 34.04Q79.40 32.36 80.20 29.96L80.20 29.96Q80.48 28.12 80 26.64Q79.52 25.16 78.54 23.98Q77.56 22.80 76.16 21.86Q74.76 20.92 73.22 20.10Q71.68 19.28 70.08 18.58Q68.48 17.88 67.08 17.16L67.08 17.16Q67.08 17.52 67.16 18.32Q67.24 19.12 67.32 20.12Q67.40 21.12 67.48 22.20Q67.56 23.28 67.64 24.20Q67.72 25.12 67.78 25.72Q67.84 26.32 67.84 26.40ZM84.08 28L84.08 28Q84.84 28.04 85.76 28.22Q86.68 28.40 87.56 28.70Q88.44 29 89.18 29.38Q89.92 29.76 90.40 30.24L90.40 30.24Q90.88 30.68 90.96 31.58Q91.04 32.48 90.84 33.56Q90.64 34.64 90.22 35.78Q89.80 36.92 89.28 37.84Q88.76 38.76 88.16 39.36Q87.56 39.96 87.04 39.96L87.04 39.96Q86.16 39.96 85.56 39.54Q84.96 39.12 84.60 38.52Q84.24 37.92 84.06 37.26Q83.88 36.60 83.84 36.12L83.84 36.12Q83.72 34 83.80 32.36Q83.88 30.72 84.08 29.64L84.08 29.64Q83.96 29.44 83.84 29.28L83.84 29.28Q83.72 29.12 83.60 28.98Q83.48 28.84 83.32 28.72L83.32 28.72Q83.48 28.64 83.64 28.48L83.64 28.48Q83.96 28.24 84.08 28ZM85.52 37.52L85.52 37.52Q85.64 37.68 85.84 37.86Q86.04 38.04 86.34 38.14Q86.64 38.24 86.96 38.16Q87.28 38.08 87.64 37.72L87.64 37.72Q88.60 36.72 89.08 35.66Q89.56 34.60 89.70 33.66Q89.84 32.72 89.66 32Q89.48 31.28 89.08 30.96L89.08 30.96Q88.76 30.76 88.54 30.62Q88.32 30.48 87.98 30.36Q87.64 30.24 87.12 30.10Q86.60 29.96 85.76 29.72L85.76 29.72Q85.36 31 85.20 32.28Q85.04 33.56 85.06 34.62Q85.08 35.68 85.22 36.46Q85.36 37.24 85.52 37.52ZM92.88 27.36L92.88 27.36Q92.84 27 93.26 27.18Q93.68 27.36 94.12 27.56L94.12 27.56Q94.28 28.48 94.36 29.02Q94.44 29.56 94.48 30.04Q94.52 30.52 94.56 31.08Q94.60 31.64 94.68 32.56L94.68 32.56Q95.04 31.64 95.56 30.86Q96.08 30.08 96.90 29.52Q97.72 28.96 98.86 28.70Q100 28.44 101.60 28.52L101.60 28.52Q101.60 28.84 101.38 29.06Q101.16 29.28 100.36 29.40L100.36 29.40Q99.20 29.60 98.34 30.18Q97.48 30.76 96.86 31.52Q96.24 32.28 95.86 33.14Q95.48 34 95.24 34.72L95.24 34.72Q95.20 35.08 95.14 35.74Q95.08 36.40 95.06 37.14Q95.04 37.88 95.02 38.58Q95 39.28 95.08 39.68L95.08 39.68Q95.12 39.88 94.90 39.98Q94.68 40.08 94.40 40.12Q94.12 40.16 93.88 40.08Q93.64 40 93.64 39.80L93.64 39.80Q93.72 35.68 93.42 32.70Q93.12 29.72 92.88 27.36ZM103.80 28.68L103.80 28.68Q103.92 28.64 104.48 28.46Q105.04 28.28 105.40 28.40L105.40 28.40Q106.56 28.36 107.18 29Q107.80 29.64 107.28 31.48L107.28 31.48Q106.52 33.52 105.26 34.88Q104 36.24 102.28 37.48L102.28 37.48Q102.68 38.52 103.48 38.64Q104.28 38.76 105.16 38.38Q106.04 38 106.88 37.36Q107.72 36.72 108.24 36.24L108.24 36.24Q109.08 35.52 109.58 35.02Q110.08 34.52 110.64 33.80L110.64 33.80Q110.76 33.72 110.78 33.82Q110.80 33.92 110.76 34.12L110.76 34.12Q110.72 34.32 110.64 34.68L110.64 34.68Q110.52 34.96 110.40 35.18Q110.28 35.40 110.06 35.66Q109.84 35.92 109.48 36.28Q109.12 36.64 108.60 37.24L108.60 37.24Q108 37.80 107.44 38.34Q106.88 38.88 106.26 39.28Q105.64 39.68 104.90 39.84Q104.16 40 103.20 39.84L103.20 39.84Q102.40 39.56 101.92 39.24Q101.44 38.92 101.18 38.58Q100.92 38.24 100.80 37.96Q100.68 37.68 100.64 37.48L100.64 37.48Q100.44 36.68 100.48 35.32Q100.52 33.96 101.28 31.80L101.28 31.80Q101.80 30.68 102.40 29.90Q103 29.12 103.80 28.68ZM102.04 35.76L102.04 35.76Q102.56 35.48 103.26 34.98Q103.96 34.48 104.58 33.82Q105.20 33.16 105.66 32.36Q106.12 31.56 106.16 30.68L106.16 30.68Q106.28 30.08 106.12 29.84L106.12 29.84Q106.04 29.72 105.96 29.72L105.96 29.72Q105.28 29.40 104.60 29.92Q103.92 30.44 103.36 31.40Q102.80 32.36 102.42 33.54Q102.04 34.72 102.04 35.76ZM111.16 28.80L111.16 28.80Q111.40 28.12 111.80 27.82Q112.20 27.52 112.60 27.28L112.60 27.28Q112.76 27.64 112.92 28.44Q113.08 29.24 113.22 30.20Q113.36 31.16 113.46 32.12Q113.56 33.08 113.68 33.76L113.68 33.76Q113.76 34.16 113.82 34.64Q113.88 35.12 113.96 35.68L113.96 35.68Q114.20 35.56 114.56 35.24Q114.92 34.92 115.40 34.60Q115.88 34.28 116.46 34.04Q117.04 33.80 117.76 33.84L117.76 33.84Q117.80 33.88 117.92 33.94Q118.04 34 118.12 34.08Q118.20 34.16 118.16 34.24Q118.12 34.32 117.88 34.36L117.88 34.36Q117.40 34.44 116.72 34.92Q116.04 35.40 115.44 36Q114.84 36.60 114.42 37.22Q114 37.84 114 38.24L114 38.24Q114.04 38.08 114.08 37.96L114.08 37.96Q114.16 37.72 114.16 38L114.16 38Q114.12 39.52 114.22 41.24Q114.32 42.96 114.20 45.56L114.20 45.56Q114.08 47.64 113.90 48.80Q113.72 49.96 113.46 50.62Q113.20 51.28 112.88 51.66Q112.56 52.04 112.12 52.56L112.12 52.56Q111.80 52.88 111.18 53.20Q110.56 53.52 109.52 53.52L109.52 53.52Q107.48 53.52 106.72 50.44L106.72 50.44Q106.60 49.16 106.72 48.10Q106.84 47.04 107.12 46.16Q107.40 45.28 107.74 44.56Q108.08 43.84 108.32 43.20L108.32 43.20Q108.68 42.56 109.06 41.92Q109.44 41.28 109.94 40.58Q110.44 39.88 111.08 39.04Q111.72 38.20 112.56 37.16L112.56 37.16Q112.48 36.60 112.44 36.08L112.44 36.08Q112.36 35.64 112.34 35.20Q112.32 34.76 112.28 34.52L112.28 34.52Q112.16 33.80 112.02 32.94Q111.88 32.08 111.72 31.26Q111.56 30.44 111.42 29.78Q111.28 29.12 111.16 28.80ZM107.96 46.88L107.96 46.88Q107.72 48.64 107.98 49.96Q108.24 51.28 109.04 51.84L109.04 51.84Q109.36 52 109.86 52.06Q110.36 52.12 110.76 52L110.76 52Q111.80 51.52 112.26 50.12Q112.72 48.72 112.88 46.90Q113.04 45.08 112.98 43.08Q112.92 41.08 112.92 39.32L112.92 39.32Q112.88 38.92 112.84 38.94Q112.80 38.96 112.60 39.16L112.60 39.16Q111.84 39.96 111.10 40.94Q110.36 41.92 109.72 42.96Q109.08 44 108.62 45.02Q108.16 46.04 107.96 46.88ZM111.60 22.72L111.60 22.72Q111.96 22.68 112 23.14Q112.04 23.60 111.88 23.84L111.88 23.84Q111.52 24.16 111.42 24.36Q111.32 24.56 110.96 24.60L110.96 24.60Q110.76 24.56 110.60 24.58Q110.44 24.60 110.36 24.04L110.36 24.04Q110.48 23.72 110.76 23.34Q111.04 22.96 111.60 22.72ZM117.08 28L117.08 28Q117.84 28.04 118.76 28.22Q119.68 28.40 120.56 28.70Q121.44 29 122.18 29.38Q122.92 29.76 123.40 30.24L123.40 30.24Q123.88 30.68 123.96 31.58Q124.04 32.48 123.84 33.56Q123.64 34.64 123.22 35.78Q122.80 36.92 122.28 37.84Q121.76 38.76 121.16 39.36Q120.56 39.96 120.04 39.96L120.04 39.96Q119.16 39.96 118.56 39.54Q117.96 39.12 117.60 38.52Q117.24 37.92 117.06 37.26Q116.88 36.60 116.84 36.12L116.84 36.12Q116.72 34 116.80 32.36Q116.88 30.72 117.08 29.64L117.08 29.64Q116.96 29.44 116.84 29.28L116.84 29.28Q116.72 29.12 116.60 28.98Q116.48 28.84 116.32 28.72L116.32 28.72Q116.48 28.64 116.64 28.48L116.64 28.48Q116.96 28.24 117.08 28ZM118.52 37.52L118.52 37.52Q118.64 37.68 118.84 37.86Q119.04 38.04 119.34 38.14Q119.64 38.24 119.96 38.16Q120.28 38.08 120.64 37.72L120.64 37.72Q121.60 36.72 122.08 35.66Q122.56 34.60 122.70 33.66Q122.84 32.72 122.66 32Q122.48 31.28 122.08 30.96L122.08 30.96Q121.76 30.76 121.54 30.62Q121.32 30.48 120.98 30.36Q120.64 30.24 120.12 30.10Q119.60 29.96 118.76 29.72L118.76 29.72Q118.36 31 118.20 32.28Q118.04 33.56 118.06 34.62Q118.08 35.68 118.22 36.46Q118.36 37.24 118.52 37.52Z" fill="black"></path></svg>